name D:\school\WTK\thesis\model\3dpredictsim\Results\Final\Fal_s1_bCst_PF_Song2011_ls150_MT_nl_Song2011_MTP_Mu0_ig1_v18.mot
datacolumns 128
datarows 4
range 0.40909131 0.43363679
endheader
time	pelvis_tilt	pelvis_list	pelvis_rotation	pelvis_tx	pelvis_ty	pelvis_tz	hip_flexion_l	hip_adduction_l	hip_rotation_l	hip_flexion_r	hip_adduction_r	hip_rotation_r	knee_angle_l	knee_angle_r	ankle_angle_l	ankle_angle_r	subtalar_angle_l	subtalar_angle_r	tmt_angle_l	tmt_angle_r	mtp_angle_l	mtp_angle_r	lumbar_extension	lumbar_bending	lumbar_rotation	arm_flex_l	arm_add_l	arm_rot_l	arm_flex_r	arm_add_r	arm_rot_r	elbow_flex_l	elbow_flex_r	pro_sup_l	pro_sup_r	glut_med1_l/activation	glut_med2_l/activation	glut_med3_l/activation	glut_min1_l/activation	glut_min2_l/activation	glut_min3_l/activation	semimem_l/activation	semiten_l/activation	bifemlh_l/activation	bifemsh_l/activation	sar_l/activation	add_long_l/activation	add_brev_l/activation	add_mag1_l/activation	add_mag2_l/activation	add_mag3_l/activation	tfl_l/activation	pect_l/activation	grac_l/activation	glut_max1_l/activation	glut_max2_l/activation	glut_max3_l/activation	iliacus_l/activation	psoas_l/activation	quad_fem_l/activation	gem_l/activation	peri_l/activation	rect_fem_l/activation	vas_med_l/activation	vas_int_l/activation	vas_lat_l/activation	med_gas_l/activation	lat_gas_l/activation	soleus_l/activation	tib_post_l/activation	flex_dig_l/activation	flex_hal_l/activation	tib_ant_l/activation	per_brev_l/activation	per_long_l/activation	per_tert_l/activation	ext_dig_l/activation	ext_hal_l/activation	ercspn_l/activation	intobl_l/activation	extobl_l/activation	glut_med1_r/activation	glut_med2_r/activation	glut_med3_r/activation	glut_min1_r/activation	glut_min2_r/activation	glut_min3_r/activation	semimem_r/activation	semiten_r/activation	bifemlh_r/activation	bifemsh_r/activation	sar_r/activation	add_long_r/activation	add_brev_r/activation	add_mag1_r/activation	add_mag2_r/activation	add_mag3_r/activation	tfl_r/activation	pect_r/activation	grac_r/activation	glut_max1_r/activation	glut_max2_r/activation	glut_max3_r/activation	iliacus_r/activation	psoas_r/activation	quad_fem_r/activation	gem_r/activation	peri_r/activation	rect_fem_r/activation	vas_med_r/activation	vas_int_r/activation	vas_lat_r/activation	med_gas_r/activation	lat_gas_r/activation	soleus_r/activation	tib_post_r/activation	flex_dig_r/activation	flex_hal_r/activation	tib_ant_r/activation	per_brev_r/activation	per_long_r/activation	per_tert_r/activation	ext_dig_r/activation	ext_hal_r/activation	ercspn_r/activation	intobl_r/activation	extobl_r/activation	
          0.40909131	         -9.59194767	          1.84212102	         -1.55283349	          0.73636435	          0.90738265	          0.00185657	         39.57428057	          3.44180517	         -4.35147293	         -6.75557958	          0.71257818	          5.45054835	        -19.37445391	        -17.93526418	         11.44806176	         -4.22285693	         -5.72359904	          2.09142721	         -0.26613389	          1.05822585	         27.38405306	         34.32818467	          2.67023446	         -1.75861649	          1.86412069	         -6.38161650	        -13.77451804	         -0.66487589	          0.04041799	        -13.60836886	         13.08420843	         43.52106227	         39.71609763	         86.51662706	         86.51662706	          0.06456612	          0.06456557	          0.05681776	          0.05000600	          0.06226124	          0.06456568	          0.44606407	          0.06456815	          0.43923688	          0.06456544	          0.05681645	          0.07659107	          0.19323191	          0.23299529	          0.32016419	          0.28767553	          0.05682128	          0.05221384	          0.18672072	          0.25133860	          0.25349056	          0.26208663	          0.05000302	          0.05000260	          0.18943147	          0.05000365	          0.15445061	          0.05000040	          0.05000196	          0.05000224	          0.05000122	          0.05681746	          0.05681586	          0.05507717	          0.06571530	          0.05008776	          0.05181710	          0.49595131	          0.32959354	          0.21031857	          0.13942143	          0.50919166	          0.27077132	          0.10050603	          0.06456596	          0.06456648	          0.10529698	          0.05001735	          0.05000772	          0.21934030	          0.10008563	          0.06500770	          0.05000331	          0.05000114	          0.05000122	          0.05000192	          0.06456710	          0.50463402	          0.05676702	          0.05000682	          0.05000784	          0.05000222	          0.56511655	          0.06458315	          0.05000673	          0.05001645	          0.05000477	          0.05000186	          0.30409352	          0.87211075	          0.14257148	          0.07822980	          0.07336586	          0.46885675	          0.13903035	          0.13902998	          0.13902495	          0.30060891	          0.44249579	          0.09548430	          0.26702021	          0.31039946	          0.37885971	          0.05000011	          0.05681935	          0.06426131	          0.05000142	          0.05000243	          0.05000098	          0.05307165	          0.05000008	          0.05000012	
          0.41727313	         -9.58665153	          1.88881768	         -1.75015417	          0.75323243	          0.90618048	          0.00168154	         39.18864589	          3.67582361	         -4.21307682	         -6.99816977	          0.46265611	          5.40730035	        -19.52811197	        -18.98081203	         10.99676772	         -5.73140656	         -5.95806122	          3.10888031	         -0.27593270	          0.65321287	         27.32348723	         35.89087480	          2.85552004	         -1.88707425	          1.89098940	         -6.96583499	        -13.74920071	         -1.34173293	         -0.33820768	        -13.63966531	         13.08276448	         43.83484812	         40.28449685	         86.51662706	         86.51662706	          0.05681826	          0.05681853	          0.05000290	          0.05681850	          0.05681845	          0.05681857	          0.39300819	          0.05682035	          0.38916523	          0.05681826	          0.05000130	          0.09475829	          0.45825797	          0.46083305	          0.34783461	          0.26920857	          0.05000341	          0.05114195	          0.16432045	          0.26058555	          0.29505239	          0.32055093	          0.05681874	          0.06427860	          0.47551452	          0.38529493	          0.37778132	          0.05000273	          0.11529296	          0.11693309	          0.11123690	          0.05000027	          0.05000045	          0.05000011	          0.06456606	          0.05000293	          0.05000142	          0.63989671	          0.29004369	          0.18508086	          0.25402316	          0.55679672	          0.30394911	          0.08844533	          0.05681814	          0.05681864	          0.09266151	          0.05000653	          0.06456450	          0.19301985	          0.08807602	          0.05721328	          0.05002299	          0.05000268	          0.05000140	          0.05000328	          0.05682002	          0.50043308	          0.38966627	          0.07095647	          0.08474368	          0.06122816	          0.59771137	          0.05683579	          0.05681407	          0.05007715	          0.05049411	          0.09184204	          0.26760245	          0.88628990	          0.19760876	          0.06898491	          0.06456643	          0.41259397	          0.12234687	          0.12234656	          0.12234212	          0.26453583	          0.38939632	          0.08402619	          0.23497791	          0.27315199	          0.33339684	          0.06099151	          0.05000139	          0.05655007	          0.05000087	          0.14643399	          0.05000114	          0.08508808	          0.05177309	          0.05681929	
          0.42545496	         -9.57747564	          1.94192782	         -1.93092507	          0.77018202	          0.90476633	          0.00150065	         38.74426660	          3.89763108	         -4.04199668	         -7.05372127	          0.22902442	          5.37621895	        -20.26329530	        -20.34528501	         10.37453619	         -7.25755065	         -6.18618448	          4.10670446	         -0.36035634	          0.16779039	         27.33297312	         37.46280960	          3.04867335	         -2.02545156	          1.90632403	         -7.51358776	        -13.73514070	         -1.94064903	         -0.73134411	        -13.66864030	         13.05801182	         44.05089332	         40.82121530	         86.51662706	         86.51662706	          0.05000011	          0.05000041	          0.17855848	          0.05000036	          0.05000035	          0.05000063	          0.34584773	          0.05000211	          0.34246560	          0.05000027	          0.05002394	          0.08338783	          0.44444678	          0.65112109	          0.45287047	          0.28876293	          0.05000105	          0.07334096	          0.14460300	          0.26516028	          0.30979112	          0.33125786	          0.05000073	          0.05656586	          0.66062703	          0.33906000	          0.33244913	          0.05682163	          0.17522545	          0.16761522	          0.15475924	          0.06456666	          0.06456701	          0.06456628	          0.05681850	          0.05681796	          0.05681927	          0.56310912	          0.33912663	          0.21470675	          0.22354063	          0.48998124	          0.26747542	          0.07783203	          0.05000007	          0.05000166	          0.08154229	          0.05681834	          0.05681932	          0.16985793	          0.07750766	          0.05035048	          0.05000871	          0.05000175	          0.05289569	          0.05000026	          0.05000269	          0.57820828	          0.58877092	          0.34088709	          0.13903582	          0.12234774	          0.59224020	          0.05001699	          0.05000245	          0.06457813	          0.09477480	          0.12234779	          0.23549028	          0.86163717	          0.38420213	          0.06071323	          0.05681958	          0.36308270	          0.10766537	          0.10766511	          0.10766119	          0.23279153	          0.34266881	          0.07394306	          0.20678066	          0.24037405	          0.29338941	          0.16511867	          0.05000140	          0.08210179	          0.05000212	          0.28531476	          0.05000282	          0.08843243	          0.06468287	          0.05000119	
          0.43363679	         -9.56528183	          2.00552314	         -2.09827425	          0.78713650	          0.90316176	          0.00136399	         38.13961861	          4.06539985	         -3.76265240	         -6.91189067	          0.01777763	          5.33347283	        -21.06248901	        -22.03787376	          9.93849262	         -8.76628097	         -6.47858667	          5.07117397	         -0.40562997	         -0.34809299	         27.40615361	         38.86180953	          3.24171334	         -2.18127768	          1.91228186	         -8.01134830	        -13.74224581	         -2.45460450	         -1.12313006	        -13.68722907	         13.01823258	         44.16185056	         41.31551974	         86.51662706	         86.51662706	          0.28775625	          0.38529282	          0.46847883	          0.38529297	          0.34311150	          0.38529154	          0.30434612	          0.15663502	          0.30136983	          0.11346329	          0.05379796	          0.07338172	          0.39111345	          0.57298706	          0.39854044	          0.30701584	          0.05000110	          0.06457435	          0.26585193	          0.41222355	          0.37921381	          0.36264559	          0.05681704	          0.05000276	          0.58136339	          0.29837732	          0.56805207	          0.05000308	          0.15419849	          0.14750150	          0.13618821	          0.05681871	          0.05681905	          0.05681833	          0.05000032	          0.05000077	          0.05000140	          0.64734002	          0.38203751	          0.18894228	          0.49758489	          0.63826175	          0.26582593	          0.07746820	          0.08337578	          0.05000079	          0.12236057	          0.05000115	          0.05000116	          0.21219187	          0.08303028	          0.05000165	          0.08557110	          0.07335237	          0.07362754	          0.05681750	          0.05003232	          0.50882399	          0.51811980	          0.29998109	          0.12235300	          0.10766640	          0.66974003	          0.07399486	          0.07406867	          0.05683096	          0.08340265	          0.10766630	          0.22839147	          0.85779310	          0.33809797	          0.05342816	          0.05000161	          0.31951278	          0.09474556	          0.09474533	          0.09474187	          0.20485656	          0.30154864	          0.06506991	          0.18196716	          0.21152944	          0.25818283	          0.20299973	          0.15004779	          0.09577366	          0.32775299	          0.40573865	          0.38256776	          0.11441772	          0.05692095	          0.05000181	
